#!OML:ASF F:\VICON\USERDATA\INSTALL\rory3\rory3.ASF
:FULLY-SPECIFIED
:DEGREES
250
root 0.743312 17.8018 11.2526 -3.14335 1.17518 -0.632233
lowerback 8.17474 -1.70108 -1.40596
upperback 1.09099 -2.28024 2.96465
thorax -3.27416 -1.10348 4.11514
lowerneck -16.1038 -2.65285 -2.12268
upperneck 18.7546 -3.30682 0.811973
head 8.55288 -1.62775 0.22632
rclavicle 1.65488e-014 7.15625e-015
rhumerus -38.6256 -23.9697 -71.6183
rradius 18.9842
rwrist 14.2169
rhand -14.9372 19.8245
rfingers 7.12502
rthumb 11.2253 -9.85518
lclavicle 1.65488e-014 7.15625e-015
lhumerus -27.9207 -6.27804 82.3009
lradius 32.332
lwrist 4.69253
lhand -26.1184 26.1077
lfingers 7.12502
lthumb 0.431428 56.087
rfemur -25.0674 5.70851 21.9599
rtibia 25.5929
rfoot -3.69335 -3.7792
rtoes -3.36913
lfemur 12.9821 -4.77314 -23.3432
ltibia 33.184
lfoot -7.06817 -6.28397
ltoes -22.4009
251
root 0.71777 17.8086 11.4507 -3.08847 0.813498 -1.05808
lowerback 8.108 -1.60646 -1.07681
upperback 1.03051 -2.12122 3.04918
thorax -3.32136 -1.02642 3.99975
lowerneck -16.2647 -2.61461 -2.00851
upperneck 18.9534 -3.27102 0.759816
head 8.64573 -1.60719 0.191
rclavicle 2.09221e-014 -3.81667e-014
rhumerus -38.7905 -24.1553 -71.4937
rradius 18.94
rwrist 14.5077
rhand -14.8819 19.3703
rfingers 7.12502
rthumb 11.2786 -10.3065
lclavicle 2.09221e-014 -3.81667e-014
lhumerus -28.1492 -5.7784 82.2098
lradius 32.1081
lwrist 4.41282
lhand -26.7575 28.8085
lfingers 7.12502
lthumb -0.185883 58.7881
rfemur -25.0509 5.96713 22.6812
rtibia 26.6297
rfoot -3.83951 -3.67848
rtoes -1.40309
lfemur 12.1962 -4.19902 -22.4939
ltibia 35.2618
lfoot -5.2587 -7.77224
ltoes -24.2913
252
root 0.699955 17.8243 11.6602 -3.20419 0.81133 -1.11618
lowerback 8.11478 -1.60299 -0.994902
upperback 0.998014 -2.10968 3.02081
thorax -3.36381 -1.02076 3.9237
lowerneck -16.5528 -2.60683 -1.87826
upperneck 19.3348 -3.25144 0.572073
head 8.82187 -1.60683 0.102199
rclavicle -2.5345e-014 -2.38542e-014
rhumerus -38.9762 -24.7606 -71.0755
rradius 18.7057
rwrist 15.0983
rhand -14.6382 19.647
rfingers 7.12502
rthumb 11.5136 -10.0168
lclavicle -2.5345e-014 -2.38542e-014
lhumerus -28.6098 -5.37721 82.1708
lradius 32.2282
lwrist 4.28617
lhand -25.8399 29.1677
lfingers 7.12502
lthumb 0.700367 59.1463
rfemur -24.6503 5.74633 22.9738
rtibia 27.4718
rfoot -4.24888 -3.01058
rtoes 0.563035
lfemur 11.4721 -4.02712 -22.1861
ltibia 37.3299
lfoot -3.58396 -9.20019
ltoes -22.9463
253
root 0.681732 17.8451 11.8687 -3.40304 0.847534 -0.965765
lowerback 8.18297 -1.57017 -1.14193
upperback 1.07085 -2.08326 2.93059
thorax -3.32626 -1.00758 3.91053
lowerneck -16.7043 -2.60587 -1.93214
upperneck 19.4484 -3.25642 0.672084
head 8.89109 -1.60129 0.141593
rclavicle -1.88597e-014 -1.03368e-014
rhumerus -38.9734 -25.5089 -70.6133
rradius 18.2985
rwrist 15.7708
rhand -14.3122 20.0427
rfingers 7.12502
rthumb 11.8281 -9.60328
lclavicle -1.88597e-014 -1.03368e-014
lhumerus -28.9874 -4.8602 82.0996
lradius 32.4125
lwrist 3.81061
lhand -24.9021 29.1779
lfingers 7.12502
lthumb 1.60608 59.1516
rfemur -24.0083 5.50676 23.034
rtibia 28.0132
rfoot -4.38069 -2.0795
rtoes 3.4878
lfemur 10.7329 -3.90869 -22.1698
ltibia 39.4078
lfoot 0.318997 -10.6345
ltoes -25.8131
254
root 0.662401 17.8791 12.0612 -3.44785 0.8681 -1.03402
lowerback 8.18428 -1.58033 -1.10012
upperback 1.12583 -2.09463 2.91255
thorax -3.27126 -1.01531 3.86775
lowerneck -16.8013 -2.58321 -2.01875
upperneck 19.4068 -3.24294 0.866335
head 8.89929 -1.57966 0.222538
rclavicle -1.05107e-014 -3.97569e-015
rhumerus -38.7513 -25.8138 -70.5253
rradius 18.0418
rwrist 16.1351
rhand -14.4662 19.6601
rfingers 7.12502
rthumb 11.6796 -9.99438
lclavicle -1.05107e-014 -3.97569e-015
lhumerus -29.213 -4.51143 82.0729
lradius 32.3274
lwrist 3.678
lhand -24.8322 28.7217
lfingers 7.12502
lthumb 1.67363 58.6949
rfemur -23.5108 5.51896 23.3022
rtibia 28.3659
rfoot -4.36838 -1.66485
rtoes 6.2239
lfemur 9.5422 -3.7413 -21.8198
ltibia 41.5217
lfoot 2.28356 -11.8532
ltoes -22.1921
255
root 0.636231 17.9139 12.245 -3.42187 0.878826 -1.62779
lowerback 8.18905 -1.61953 -0.633104
upperback 1.07433 -2.09895 3.05619
thorax -3.33862 -1.02083 3.75583
lowerneck -16.7405 -2.52641 -1.79869
upperneck 19.3525 -3.1837 0.690267
head 8.86163 -1.55524 0.135126
rclavicle -3.87382e-014 4.77083e-015
rhumerus -38.6167 -25.6925 -70.7002
rradius 18.0602
rwrist 15.8193
rhand -14.3531 19.0671
rfingers 7.12502
rthumb 11.7886 -10.5811
lclavicle -3.87382e-014 4.77083e-015
lhumerus -29.6953 -4.36439 82.1176
lradius 32.4891
lwrist 4.11864
lhand -24.9432 28.406
lfingers 7.12502
lthumb 1.56638 58.38
rfemur -23.0097 5.76195 24.165
rtibia 28.4909
rfoot -4.36723 -1.86998
rtoes 8.11826
lfemur 8.11975 -3.59767 -20.8063
ltibia 43.7587
lfoot 4.55274 -13.3142
ltoes -19.0005
256
root 0.609403 17.935 12.4364 -3.54397 0.833807 -2.07976
lowerback 8.35954 -1.59416 -0.27649
upperback 0.983784 -2.02467 3.15762
thorax -3.54168 -0.984326 3.66165
lowerneck -16.3519 -2.51829 -1.73446
upperneck 19.2304 -3.16276 0.543372
head 8.74555 -1.55881 0.0832004
rclavicle -2.55935e-014 3.57812e-014
rhumerus -38.778 -25.6459 -70.678
rradius 18.2377
rwrist 15.7372
rhand -14.0146 19.0775
rfingers 7.12502
rthumb 12.115 -10.5517
lclavicle -2.55935e-014 3.57812e-014
lhumerus -30.2216 -4.23761 82.2162
lradius 32.6033
lwrist 4.31853
lhand -24.9076 28.5083
lfingers 7.12502
lthumb 1.60083 58.482
rfemur -22.1942 6.09123 24.9095
rtibia 28.401
rfoot -4.05461 -2.10832
rtoes 9.29302
lfemur 6.96012 -3.44642 -20.0078
ltibia 46.0884
lfoot 7.7779 -14.3217
ltoes -16.2558
257
root 0.5882 17.9605 12.6276 -3.61654 0.895182 -2.36594
lowerback 8.41827 -1.61843 -0.0797673
upperback 0.997012 -2.03516 3.23576
thorax -3.56413 -0.991592 3.63533
lowerneck -16.3204 -2.5316 -1.67031
upperneck 19.2657 -3.15423 0.342752
head 8.74716 -1.57185 0.00602383
rclavicle -3.86388e-014 2.38542e-014
rhumerus -38.5931 -25.2525 -70.9561
rradius 18.4399
rwrist 15.4422
rhand -14.033 19.1625
rfingers 7.12502
rthumb 12.0973 -10.4678
lclavicle -3.86388e-014 2.38542e-014
lhumerus -30.3038 -4.12417 82.3426
lradius 32.3597
lwrist 4.49293
lhand -26.3953 26.7319
lfingers 7.12502
lthumb 0.163962 56.7116
rfemur -21.2944 6.33273 25.434
rtibia 28.1705
rfoot -3.56718 -2.30542
rtoes 11.7063
lfemur 5.70459 -3.4121 -19.4451
ltibia 48.4435
lfoot 10.8878 -14.8865
ltoes -12.6838
258
root 0.569175 17.9817 12.8088 -3.55198 0.789198 -3.00425
lowerback 8.2725 -1.59146 0.467664
upperback 1.03389 -1.94668 3.41223
thorax -3.46234 -0.955278 3.49419
lowerneck -16.5556 -2.53924 -1.62758
upperneck 19.4457 -3.16425 0.302451
head 8.84993 -1.57648 -0.0203876
rclavicle -3.37934e-015 -1.74931e-014
rhumerus -38.3482 -24.6887 -71.3841
rradius 18.7693
rwrist 14.7958
rhand -14.025 19.0921
rfingers 7.12502
rthumb 12.105 -10.5378
lclavicle -3.37934e-015 -1.74931e-014
lhumerus -30.433 -3.95607 82.4421
lradius 32.2182
lwrist 4.63123
lhand -27.6554 24.286
lfingers 7.12502
lthumb -1.05312 54.2632
rfemur -20.6124 6.70882 26.3268
rtibia 28.0209
rfoot -3.30237 -2.57595
rtoes 14.5561
lfemur 4.23688 -3.15283 -18.4316
ltibia 50.7988
lfoot 12.9056 -15.5008
ltoes -8.43924
